<svg id="horns.svg" xmlns="http://www.w3.org/2000/svg" width="41" height="62" viewBox="0 0 41 62">
  <defs>
    <style>
      .cls-1 {
        fill: #ffdd67;
      }

      .cls-1, .cls-2 {
        fill-rule: evenodd;
      }

      .cls-2 {
        fill: #e99d50;
      }
    </style>
  </defs>
  <path id="Эллипс_3" data-name="Эллипс 3" class="cls-1" d="M1228.72,349.961a19.641,19.641,0,0,1-5.47,10.633c-3.07,3.073-6.78,3.941-10.92,3.3-2.59-.4-5.17-0.832-7.8-1a14.247,14.247,0,0,1-7.3-2.679,14.744,14.744,0,0,1-3.5-3.487c-0.09-.122-0.19-0.493-0.32-0.014a15.736,15.736,0,0,1-1.68-5.287,46.011,46.011,0,0,1,.08-14.72,8.389,8.389,0,0,0-.42-2.739c-1.1-5.969-2.24-11.932-3.33-17.9a4.387,4.387,0,0,1,4.25-4.917c0.24-.01.48,0,0.72,0a1.605,1.605,0,0,0,.21.247,4.437,4.437,0,0,1,1.79,2.983q0.735,4.063,1.48,8.125c0.56,3.025,1.13,6.049,1.69,9.074a2.961,2.961,0,0,0,.74,1.56,0.436,0.436,0,0,0,.26.163,0.249,0.249,0,0,0,.17-0.3c0.01-.26,0-0.52.01-0.779,0.09-1.762-.24-3.544.26-5.287a4.848,4.848,0,0,1,3-2.441,4.5,4.5,0,0,1,4.29.918,8.68,8.68,0,0,1,.26,2.825c0,1.777-.02,3.555.01,5.331a1.455,1.455,0,0,1-.17.848c1.34-.461,2.79.169,4.31,0.132a0.064,0.064,0,0,1,.02-0.035,12.775,12.775,0,0,1-1.99.064c-0.56-.03-0.76-0.128-0.75-0.72,0.04-1.645.01-3.291,0.02-4.937a3,3,0,0,0-.11-0.895l0.24-.927a4.667,4.667,0,0,1,7.53-2.163c-0.1.061-.09,0.1,0.02,0.122l0.02-.017a42.536,42.536,0,0,1,.21,6.864,10.589,10.589,0,0,1,1.06-.059c0.14,0,.27.008,0.4,0.013,0-.393.01-0.786,0-1.178a11.856,11.856,0,0,0-.23-3.413,5.5,5.5,0,0,0,.2-1.847c0.19-2.866.31-5.736,0.46-8.6,0.17-3.148.34-6.3,0.53-9.444a4.616,4.616,0,0,1,5.8-4.016,5.573,5.573,0,0,1,1.23,4.516c-0.23,2.682-.29,5.383-0.43,8.076-0.08,1.809-.18,3.619-0.26,5.429-0.12,2.716-.24,5.431-0.4,8.144-0.1,1.53-.05,3.07-0.17,4.6-0.08.95-.11,1.9-0.11,2.846,0,0.384-.11.445-0.34,0.311a3.65,3.65,0,0,1-.28.615c0.67,0.47,1.35.936,2.01,1.42a5.564,5.564,0,0,1,1.93,2.334A14.384,14.384,0,0,1,1228.72,349.961Z" transform="translate(-1188 -303)"/>
  <path id="Фигура_2" data-name="Фигура 2" class="cls-2" d="M1228.88,344.113a8.817,8.817,0,0,0-2.9-5.766,1.508,1.508,0,0,1-.53-1.346c0.3-5.507.58-11.014,0.87-16.521q0.18-3.461.35-6.922c0.12-2.33.25-4.659,0.32-6.991,0.06-2.065-1.44-3.2-3.37-3.567a4.26,4.26,0,0,1,1.22,3.822c-0.24,2.7-.3,5.422-0.43,8.134-0.08,1.823-.17,3.646-0.25,5.469-0.12,2.735-.24,5.47-0.4,8.2-0.09,1.541-.05,3.092-0.17,4.63-0.07.957-.1,1.911-0.1,2.867,0,0.459-.13.477-0.47,0.23-0.79-.57-1.58-1.132-2.39-1.668-1.11-.736-2.04-1.749-3.36-2.147a0.417,0.417,0,0,1-.26-0.52c0-.742.01-1.483,0-2.225a12.031,12.031,0,0,0-.23-3.438,3.706,3.706,0,0,0-1.41-2.243c0.44,2.572.12,5.168,0.23,7.749a0.636,0.636,0,0,1-.55.755,18.051,18.051,0,0,1-6.5,1.1c-0.55-.031-0.75-0.129-0.73-0.726,0.04-1.656.01-3.315,0.01-4.972a3.038,3.038,0,0,0-.1-0.9,4.251,4.251,0,0,0-1.57-2.631,8.791,8.791,0,0,1,.25,2.845c0,1.79-.02,3.58.01,5.37a4.182,4.182,0,0,1-.61,2.74,0.886,0.886,0,0,0-.19.615h0c-0.14.127-.29,0.255-0.43,0.381a4.561,4.561,0,0,1-4.3,1.168,12.149,12.149,0,0,1-1.61-.69,3.682,3.682,0,0,0,1.42,1.75,4.6,4.6,0,0,0,3.63.711c0.19-.031.55-0.4,0.66,0.126a5.327,5.327,0,0,0,2.94,3.662c1.8,0.977,3.63,1.486,5.6.5a0.906,0.906,0,0,1,.85-0.065,7.425,7.425,0,0,1-3.02.733,1.107,1.107,0,0,0-.54.185,10.909,10.909,0,0,0-5.4,5.728,12.067,12.067,0,0,0-.58,5.815,10.037,10.037,0,0,1,.13-1.55,10.681,10.681,0,0,1,2.75-6.207,13.169,13.169,0,0,1,6.08-3.644c0.9-.28,1.57-0.4,2.15.579,0.92,1.533,2.42,2.78,2.15,5.018,0.59-1.463.92-2.7,0.03-4.042-0.78-1.159-1.67-2.209-2.48-3.337a1.059,1.059,0,0,0-1.63-.472,6.309,6.309,0,0,1-1.79.484,6.936,6.936,0,0,1-3.85-1.1c-2.19-1.209-3.35-3.1-2.75-5.725,0.29-.268.56-0.539,0.85-0.8a1.654,1.654,0,0,1,1.28-.515,18.137,18.137,0,0,0,7.34-1.108,3.978,3.978,0,0,1,3.75.555c2.01,1.419,4.03,2.815,6,4.291a5.584,5.584,0,0,1,1.89,2.351,14.924,14.924,0,0,1,.75,8.383,20.006,20.006,0,0,1-5.35,10.711,11.477,11.477,0,0,1-10.69,3.322c-2.54-.406-5.06-0.838-7.64-1.007a13.721,13.721,0,0,1-7.15-2.7,14.683,14.683,0,0,1-3.43-3.511c-0.08-.124-0.18-0.5-0.31-0.015a11.108,11.108,0,0,0,2.5,3.467,15.428,15.428,0,0,0,8.81,3.831,18.283,18.283,0,0,1,3.58.434,25.422,25.422,0,0,0,4.52,1.066,11.172,11.172,0,0,0,9.4-2.413C1227.33,357.614,1229.57,351.414,1228.88,344.113Zm-34.38-29.826c0.49,2.728.97,4.548,1.46,7.275l1.65,9.14a3.04,3.04,0,0,0,.72,1.571c0.07,0.075.18,1.963,0.26,1.956a9.91,9.91,0,0,0,1.99-.3c0.01-.262-0.92-2.316-0.9-2.577,0.08-1.775-1.14-3.57-.66-5.325a2.268,2.268,0,0,1-.08-0.25c-0.7-3.911-1.42-7.82-2.11-11.735-0.38-2.185-2.54-3.125-4.65-3.186a1.579,1.579,0,0,0,.2.249A5.374,5.374,0,0,1,1194.5,314.287Z" transform="translate(-1188 -303)"/>
</svg>
